<?xml version="1.0" encoding="utf-8"?>
<!-- Generator: Adobe Illustrator 26.5.0, SVG Export Plug-In . SVG Version: 6.00 Build 0)  -->
<!DOCTYPE svg PUBLIC "-//W3C//DTD SVG 1.1//EN" "http://www.w3.org/Graphics/SVG/1.1/DTD/svg11.dtd" [
	<!ENTITY ns_extend "http://ns.adobe.com/Extensibility/1.0/">
	<!ENTITY ns_ai "http://ns.adobe.com/AdobeIllustrator/10.0/">
	<!ENTITY ns_graphs "http://ns.adobe.com/Graphs/1.0/">
	<!ENTITY ns_vars "http://ns.adobe.com/Variables/1.0/">
	<!ENTITY ns_imrep "http://ns.adobe.com/ImageReplacement/1.0/">
	<!ENTITY ns_sfw "http://ns.adobe.com/SaveForWeb/1.0/">
	<!ENTITY ns_custom "http://ns.adobe.com/GenericCustomNamespace/1.0/">
	<!ENTITY ns_adobe_xpath "http://ns.adobe.com/XPath/1.0/">
]>
<svg version="1.1" id="Layer_1" xmlns:x="&ns_extend;" xmlns:i="&ns_ai;" xmlns:graph="&ns_graphs;"
	 xmlns="http://www.w3.org/2000/svg" xmlns:xlink="http://www.w3.org/1999/xlink" x="0px" y="0px" width="60px" height="60px"
	 viewBox="0 0 60 60" style="enable-background:new 0 0 60 60;" xml:space="preserve">
<style type="text/css">
	.st0{fill:#bb8c5c;}
	.st1{fill:none;}
</style>
<metadata>
	<sfw  xmlns="&ns_sfw;">
		<slices></slices>
		<sliceSourceBounds  bottomLeftOrigin="true" height="60" width="60" x="0" y="0"></sliceSourceBounds>
	</sfw>
</metadata>
<path class="st0" d="M41.062,31.981c-0.578-0.595-1.527-0.608-2.121-0.031L31.5,39.393V15.999c0-0.828-0.672-1.5-1.5-1.5
	s-1.5,0.672-1.5,1.5v23.386l-7.438-7.436c-0.582-0.565-1.508-0.565-2.09,0c-0.594,0.577-0.609,1.526-0.031,2.121l9.989,9.989
	c0.14,0.143,0.309,0.258,0.497,0.336c0.005,0.002,0.011,0.003,0.016,0.005c0.084,0.034,0.171,0.062,0.262,0.08
	c0.065,0.013,0.133,0.016,0.2,0.02c0.032,0.002,0.062,0.01,0.094,0.01c0,0,0.001,0,0.001,0s0.001,0,0.001,0
	c0.101,0,0.201-0.01,0.298-0.03c0.024-0.005,0.046-0.015,0.07-0.021c0.072-0.018,0.144-0.037,0.212-0.066
	c0.016-0.007,0.03-0.017,0.046-0.025c0.159-0.073,0.308-0.171,0.434-0.297l10-10C41.627,33.489,41.627,32.563,41.062,31.981z"/>
<rect id="사각형_2377" y="0" class="st1" width="60" height="60"/>
</svg>
